G04 (created by PCBNEW (2013-07-07 BZR 4022)-stable) date 15/2/14 1:46:04 AM*
%MOIN*%
G04 Gerber Fmt 3.4, Leading zero omitted, Abs format*
%FSLAX34Y34*%
G01*
G70*
G90*
G04 APERTURE LIST*
%ADD10C,0.00590551*%
%ADD11R,0.025X0.045*%
%ADD12R,0.06X0.06*%
%ADD13C,0.06*%
%ADD14R,0.0472X0.0394*%
%ADD15R,0.0314X0.0314*%
%ADD16O,0.06X0.1*%
%ADD17C,0.155*%
%ADD18C,0.01*%
G04 APERTURE END LIST*
G54D10*
G54D11*
X52300Y-46000D03*
X51700Y-46000D03*
X52300Y-47500D03*
X51700Y-47500D03*
X52300Y-49000D03*
X51700Y-49000D03*
X52300Y-50500D03*
X51700Y-50500D03*
G54D12*
X78500Y-48000D03*
G54D13*
X79500Y-48000D03*
X80500Y-48000D03*
X81500Y-48000D03*
G54D12*
X58000Y-56500D03*
G54D13*
X59000Y-56500D03*
X60000Y-56500D03*
G54D12*
X64000Y-48000D03*
G54D13*
X65000Y-48000D03*
X66000Y-48000D03*
G54D12*
X62500Y-45000D03*
G54D13*
X63500Y-45000D03*
X64500Y-45000D03*
X65500Y-45000D03*
X66500Y-45000D03*
X67500Y-45000D03*
G54D12*
X77500Y-45000D03*
G54D13*
X78500Y-45000D03*
X79500Y-45000D03*
X80500Y-45000D03*
X81500Y-45000D03*
X82500Y-45000D03*
G54D14*
X49780Y-56272D03*
X49780Y-57728D03*
X52220Y-56272D03*
X52220Y-57728D03*
G54D15*
X50205Y-46000D03*
X50795Y-46000D03*
X50205Y-47500D03*
X50795Y-47500D03*
X50205Y-49000D03*
X50795Y-49000D03*
X50205Y-50500D03*
X50795Y-50500D03*
G54D16*
X76000Y-40500D03*
X77000Y-40500D03*
X78000Y-40500D03*
X79000Y-40500D03*
X80000Y-40500D03*
X81000Y-40500D03*
X82000Y-40500D03*
X83000Y-40500D03*
X85000Y-59500D03*
X84000Y-59500D03*
X83000Y-59500D03*
X82000Y-59500D03*
X78000Y-59500D03*
X76000Y-59500D03*
X75000Y-59500D03*
X79000Y-59500D03*
X80000Y-59500D03*
X81000Y-59500D03*
X74000Y-59500D03*
X73000Y-59500D03*
X72000Y-59500D03*
X69000Y-59500D03*
X70000Y-59500D03*
X71000Y-59500D03*
X67000Y-59500D03*
X66000Y-59500D03*
X65000Y-59500D03*
X63000Y-59500D03*
X62000Y-59500D03*
X74000Y-40500D03*
X73000Y-40500D03*
X72000Y-40500D03*
X71000Y-40500D03*
X70000Y-40500D03*
X69000Y-40500D03*
X68000Y-40500D03*
X67000Y-40500D03*
X65400Y-40500D03*
X64400Y-40500D03*
X63400Y-40500D03*
X62400Y-40500D03*
X61400Y-40500D03*
X60400Y-40500D03*
X59400Y-40500D03*
X58400Y-40500D03*
X64000Y-59500D03*
G54D17*
X87000Y-59500D03*
X84500Y-40500D03*
X55000Y-40500D03*
X54500Y-59500D03*
G54D13*
X86000Y-41500D03*
X87000Y-41500D03*
X86000Y-42500D03*
X87000Y-42500D03*
X86000Y-43500D03*
X87000Y-43500D03*
X86000Y-44500D03*
X87000Y-44500D03*
X86000Y-40500D03*
X87000Y-40500D03*
X87000Y-45500D03*
X86000Y-45500D03*
X86000Y-46500D03*
X87000Y-46500D03*
X86000Y-47500D03*
X87000Y-47500D03*
X86000Y-48500D03*
X87000Y-48500D03*
X86000Y-49500D03*
X87000Y-49500D03*
X86000Y-50500D03*
X87000Y-50500D03*
X86000Y-51500D03*
X87000Y-51500D03*
X86000Y-52500D03*
X87000Y-52500D03*
X86000Y-53500D03*
X87000Y-53500D03*
X86000Y-54500D03*
X87000Y-54500D03*
X86000Y-55500D03*
X87000Y-55500D03*
X86000Y-56500D03*
X87000Y-56500D03*
X86000Y-57500D03*
X87000Y-57500D03*
G54D18*
X78950Y-45450D02*
X81500Y-48000D01*
X78287Y-45450D02*
X78950Y-45450D01*
X77950Y-45112D02*
X78287Y-45450D01*
X77950Y-45000D02*
X77950Y-45112D01*
X77500Y-45000D02*
X77950Y-45000D01*
X50672Y-46467D02*
X50205Y-46000D01*
X51242Y-46467D02*
X50672Y-46467D01*
X52024Y-47249D02*
X51242Y-46467D01*
X52024Y-47789D02*
X52024Y-47249D01*
X52263Y-48028D02*
X52024Y-47789D01*
X62986Y-48028D02*
X52263Y-48028D01*
X64101Y-49143D02*
X62986Y-48028D01*
X81643Y-49143D02*
X64101Y-49143D01*
X86000Y-53500D02*
X81643Y-49143D01*
X51054Y-48349D02*
X50205Y-47500D01*
X62907Y-48349D02*
X51054Y-48349D01*
X67690Y-53132D02*
X62907Y-48349D01*
X84632Y-53132D02*
X67690Y-53132D01*
X86000Y-54500D02*
X84632Y-53132D01*
X84632Y-54132D02*
X86000Y-55500D01*
X55368Y-54132D02*
X84632Y-54132D01*
X52024Y-50788D02*
X55368Y-54132D01*
X52024Y-50249D02*
X52024Y-50788D01*
X51242Y-49467D02*
X52024Y-50249D01*
X50672Y-49467D02*
X51242Y-49467D01*
X50205Y-49000D02*
X50672Y-49467D01*
X84965Y-55465D02*
X86000Y-56500D01*
X55170Y-55465D02*
X84965Y-55465D01*
X50205Y-50500D02*
X55170Y-55465D01*
X65000Y-58849D02*
X66000Y-58849D01*
X66000Y-59500D02*
X66000Y-58849D01*
X65000Y-59500D02*
X65000Y-58899D01*
X65000Y-58899D02*
X65000Y-58849D01*
X58000Y-56500D02*
X58450Y-56500D01*
X63927Y-57777D02*
X65000Y-58849D01*
X59615Y-57777D02*
X63927Y-57777D01*
X58450Y-56612D02*
X59615Y-57777D01*
X58450Y-56500D02*
X58450Y-56612D01*
X57321Y-56272D02*
X57549Y-56500D01*
X52220Y-56272D02*
X57321Y-56272D01*
X58000Y-56500D02*
X57549Y-56500D01*
X52300Y-47500D02*
X52300Y-46000D01*
X77599Y-48450D02*
X78049Y-48000D01*
X64804Y-48450D02*
X77599Y-48450D01*
X64450Y-48095D02*
X64804Y-48450D01*
X64450Y-48000D02*
X64450Y-48095D01*
X64000Y-48000D02*
X64450Y-48000D01*
X78500Y-48000D02*
X78049Y-48000D01*
X52300Y-46000D02*
X52575Y-46000D01*
X52300Y-50500D02*
X52300Y-49000D01*
X52300Y-49000D02*
X52024Y-49000D01*
X52300Y-46000D02*
X52024Y-46000D01*
X59400Y-40500D02*
X59400Y-41100D01*
X62500Y-45000D02*
X62500Y-44549D01*
X57125Y-41449D02*
X52575Y-46000D01*
X59400Y-41449D02*
X57125Y-41449D01*
X59400Y-41100D02*
X59400Y-41449D01*
X59400Y-41449D02*
X62500Y-44549D01*
X52220Y-56272D02*
X52220Y-55924D01*
X49897Y-53602D02*
X52220Y-55924D01*
X49897Y-48775D02*
X49897Y-53602D01*
X50416Y-48256D02*
X49897Y-48775D01*
X50785Y-48624D02*
X50416Y-48256D01*
X51890Y-48624D02*
X50785Y-48624D01*
X52024Y-48759D02*
X51890Y-48624D01*
X52024Y-49000D02*
X52024Y-48759D01*
X52024Y-45759D02*
X52024Y-46000D01*
X51877Y-45612D02*
X52024Y-45759D01*
X50044Y-45612D02*
X51877Y-45612D01*
X49888Y-45767D02*
X50044Y-45612D01*
X49888Y-47728D02*
X49888Y-45767D01*
X50416Y-48256D02*
X49888Y-47728D01*
X50795Y-47500D02*
X51700Y-47500D01*
X50795Y-49000D02*
X51700Y-49000D01*
X50795Y-50500D02*
X51700Y-50500D01*
X61225Y-58075D02*
X49780Y-58075D01*
X62000Y-58849D02*
X61225Y-58075D01*
X62000Y-59500D02*
X62000Y-58849D01*
X49780Y-57727D02*
X49780Y-58075D01*
X50795Y-46000D02*
X51700Y-46000D01*
X82000Y-44500D02*
X82500Y-45000D01*
X82000Y-40500D02*
X82000Y-44500D01*
X59450Y-56950D02*
X59000Y-56500D01*
X65100Y-56950D02*
X59450Y-56950D01*
X67000Y-58849D02*
X65100Y-56950D01*
X67000Y-59500D02*
X67000Y-58849D01*
M02*
