G04 (created by PCBNEW (2013-07-07 BZR 4022)-stable) date 15/2/14 1:46:04 AM*
%MOIN*%
G04 Gerber Fmt 3.4, Leading zero omitted, Abs format*
%FSLAX34Y34*%
G01*
G70*
G90*
G04 APERTURE LIST*
%ADD10C,0.00590551*%
%ADD11R,0.06X0.06*%
%ADD12C,0.06*%
%ADD13O,0.06X0.1*%
%ADD14C,0.155*%
%ADD15C,0.01*%
G04 APERTURE END LIST*
G54D10*
G54D11*
X78500Y-48000D03*
G54D12*
X79500Y-48000D03*
X80500Y-48000D03*
X81500Y-48000D03*
G54D11*
X58000Y-56500D03*
G54D12*
X59000Y-56500D03*
X60000Y-56500D03*
G54D11*
X64000Y-48000D03*
G54D12*
X65000Y-48000D03*
X66000Y-48000D03*
G54D11*
X62500Y-45000D03*
G54D12*
X63500Y-45000D03*
X64500Y-45000D03*
X65500Y-45000D03*
X66500Y-45000D03*
X67500Y-45000D03*
G54D11*
X77500Y-45000D03*
G54D12*
X78500Y-45000D03*
X79500Y-45000D03*
X80500Y-45000D03*
X81500Y-45000D03*
X82500Y-45000D03*
G54D13*
X76000Y-40500D03*
X77000Y-40500D03*
X78000Y-40500D03*
X79000Y-40500D03*
X80000Y-40500D03*
X81000Y-40500D03*
X82000Y-40500D03*
X83000Y-40500D03*
X85000Y-59500D03*
X84000Y-59500D03*
X83000Y-59500D03*
X82000Y-59500D03*
X78000Y-59500D03*
X76000Y-59500D03*
X75000Y-59500D03*
X79000Y-59500D03*
X80000Y-59500D03*
X81000Y-59500D03*
X74000Y-59500D03*
X73000Y-59500D03*
X72000Y-59500D03*
X69000Y-59500D03*
X70000Y-59500D03*
X71000Y-59500D03*
X67000Y-59500D03*
X66000Y-59500D03*
X65000Y-59500D03*
X63000Y-59500D03*
X62000Y-59500D03*
X74000Y-40500D03*
X73000Y-40500D03*
X72000Y-40500D03*
X71000Y-40500D03*
X70000Y-40500D03*
X69000Y-40500D03*
X68000Y-40500D03*
X67000Y-40500D03*
X65400Y-40500D03*
X64400Y-40500D03*
X63400Y-40500D03*
X62400Y-40500D03*
X61400Y-40500D03*
X60400Y-40500D03*
X59400Y-40500D03*
X58400Y-40500D03*
X64000Y-59500D03*
G54D14*
X87000Y-59500D03*
X84500Y-40500D03*
X55000Y-40500D03*
X54500Y-59500D03*
G54D12*
X86000Y-41500D03*
X87000Y-41500D03*
X86000Y-42500D03*
X87000Y-42500D03*
X86000Y-43500D03*
X87000Y-43500D03*
X86000Y-44500D03*
X87000Y-44500D03*
X86000Y-40500D03*
X87000Y-40500D03*
X87000Y-45500D03*
X86000Y-45500D03*
X86000Y-46500D03*
X87000Y-46500D03*
X86000Y-47500D03*
X87000Y-47500D03*
X86000Y-48500D03*
X87000Y-48500D03*
X86000Y-49500D03*
X87000Y-49500D03*
X86000Y-50500D03*
X87000Y-50500D03*
X86000Y-51500D03*
X87000Y-51500D03*
X86000Y-52500D03*
X87000Y-52500D03*
X86000Y-53500D03*
X87000Y-53500D03*
X86000Y-54500D03*
X87000Y-54500D03*
X86000Y-55500D03*
X87000Y-55500D03*
X86000Y-56500D03*
X87000Y-56500D03*
X86000Y-57500D03*
X87000Y-57500D03*
G54D15*
X73462Y-56037D02*
X81500Y-48000D01*
X73462Y-59884D02*
X73462Y-56037D01*
X73197Y-60150D02*
X73462Y-59884D01*
X63000Y-60150D02*
X73197Y-60150D01*
X63000Y-59500D02*
X63000Y-60150D01*
X64675Y-48000D02*
X65000Y-48000D01*
X64675Y-58174D02*
X64675Y-48000D01*
X64000Y-58849D02*
X64675Y-58174D01*
X64675Y-45175D02*
X64500Y-45000D01*
X64675Y-48000D02*
X64675Y-45175D01*
X64000Y-59500D02*
X64000Y-58849D01*
X66000Y-51849D02*
X66000Y-48000D01*
X73000Y-58849D02*
X66000Y-51849D01*
X73000Y-59500D02*
X73000Y-58849D01*
X78500Y-45000D02*
X78500Y-48000D01*
X62500Y-46049D02*
X64000Y-47549D01*
X62500Y-45000D02*
X62500Y-46049D01*
X64000Y-48000D02*
X64000Y-47549D01*
X67326Y-44173D02*
X66500Y-45000D01*
X70976Y-44173D02*
X67326Y-44173D01*
X74000Y-41150D02*
X70976Y-44173D01*
X74000Y-40500D02*
X74000Y-41150D01*
X82967Y-45532D02*
X80500Y-48000D01*
X82967Y-44537D02*
X82967Y-45532D01*
X83000Y-44505D02*
X82967Y-44537D01*
X83000Y-40500D02*
X83000Y-44505D01*
X81962Y-44537D02*
X81500Y-45000D01*
X82967Y-44537D02*
X81962Y-44537D01*
X82500Y-45000D02*
X79500Y-48000D01*
X69349Y-41150D02*
X65500Y-45000D01*
X73000Y-41150D02*
X69349Y-41150D01*
X73000Y-40500D02*
X73000Y-41150D01*
M02*
