M48
;DRILL file {Pcbnew (2013-07-07 BZR 4022)-stable} date 15/2/14 1:46:26 AM
;FORMAT={-:-/ absolute / metric / decimal}
FMAT,2
METRIC,TZ
T1C0.813
T2C1.016
T3C3.175
%
G90
G05
M71
T1
X148.336Y-102.87
X150.876Y-102.87
X153.416Y-102.87
X155.956Y-102.87
X157.48Y-151.13
X158.496Y-102.87
X160.02Y-151.13
X161.036Y-102.87
X162.56Y-151.13
X163.576Y-102.87
X165.1Y-151.13
X166.116Y-102.87
X167.64Y-151.13
X170.18Y-102.87
X170.18Y-151.13
X172.72Y-102.87
X175.26Y-102.87
X175.26Y-151.13
X177.8Y-102.87
X177.8Y-151.13
X180.34Y-102.87
X180.34Y-151.13
X182.88Y-102.87
X182.88Y-151.13
X185.42Y-102.87
X185.42Y-151.13
X187.96Y-102.87
X187.96Y-151.13
X190.5Y-151.13
X193.04Y-102.87
X193.04Y-151.13
X195.58Y-102.87
X198.12Y-102.87
X198.12Y-151.13
X200.66Y-102.87
X200.66Y-151.13
X203.2Y-102.87
X203.2Y-151.13
X205.74Y-102.87
X205.74Y-151.13
X208.28Y-102.87
X208.28Y-151.13
X210.82Y-102.87
X210.82Y-151.13
X213.36Y-151.13
X215.9Y-151.13
X218.44Y-102.87
X218.44Y-105.41
X218.44Y-107.95
X218.44Y-110.49
X218.44Y-113.03
X218.44Y-115.57
X218.44Y-118.11
X218.44Y-120.65
X218.44Y-123.19
X218.44Y-125.73
X218.44Y-128.27
X218.44Y-130.81
X218.44Y-133.35
X218.44Y-135.89
X218.44Y-138.43
X218.44Y-140.97
X218.44Y-143.51
X218.44Y-146.05
X220.98Y-102.87
X220.98Y-105.41
X220.98Y-107.95
X220.98Y-110.49
X220.98Y-113.03
X220.98Y-115.57
X220.98Y-118.11
X220.98Y-120.65
X220.98Y-123.19
X220.98Y-125.73
X220.98Y-128.27
X220.98Y-130.81
X220.98Y-133.35
X220.98Y-135.89
X220.98Y-138.43
X220.98Y-140.97
X220.98Y-143.51
X220.98Y-146.05
T2
X147.32Y-143.51
X149.86Y-143.51
X152.4Y-143.51
X158.75Y-114.3
X161.29Y-114.3
X162.56Y-121.92
X163.83Y-114.3
X165.1Y-121.92
X166.37Y-114.3
X167.64Y-121.92
X168.91Y-114.3
X171.45Y-114.3
X196.85Y-114.3
X199.39Y-114.3
X199.39Y-121.92
X201.93Y-114.3
X201.93Y-121.92
X204.47Y-114.3
X204.47Y-121.92
X207.01Y-114.3
X207.01Y-121.92
X209.55Y-114.3
T3
X138.43Y-151.13
X139.7Y-102.87
X214.63Y-102.87
X220.98Y-151.13
T0
M30
